<svg xmlns="http://www.w3.org/2000/svg" version="1.1" xmlns:xlink="http://www.w3.org/1999/xlink" viewBox="0 0 200 200"><rect width="200" height="200" fill="url('#gradient')"></rect><defs><linearGradient id="gradient" gradientTransform="rotate(45 0.5 0.5)"><stop offset="0%" stop-color="#ffffff"></stop><stop offset="100%" stop-color="#ffffff"></stop></linearGradient></defs><g><g fill="#445272" transform="matrix(2.584037558685446,0,0,2.584037558685446,12.258926785104151,113.72373859065239)" stroke="#ff3c00" stroke-width="0"><path d="M9.17-4.81L12.58-4.81Q12.51-3.33 11.78-2.19Q11.04-1.05 9.72-0.43Q8.40 0.20 6.70 0.20L6.70 0.20Q3.90 0.20 2.29-1.63Q0.67-3.46 0.67-6.79L0.67-6.79L0.67-7.49Q0.67-9.58 1.40-11.15Q2.13-12.71 3.50-13.57Q4.86-14.42 6.66-14.42L6.66-14.42Q9.25-14.42 10.82-13.06Q12.39-11.70 12.61-9.31L12.61-9.31L9.19-9.31Q9.15-10.61 8.54-11.17Q7.92-11.74 6.66-11.74L6.66-11.74Q5.38-11.74 4.79-10.78Q4.19-9.82 4.16-7.72L4.16-7.72L4.16-6.72Q4.16-4.44 4.73-3.47Q5.30-2.49 6.70-2.49L6.70-2.49Q7.88-2.49 8.51-3.05Q9.13-3.60 9.17-4.81L9.17-4.81ZM23.29 0L20 0Q19.82-0.32 19.69-0.95L19.69-0.95Q18.78 0.20 17.15 0.20L17.15 0.20Q15.65 0.20 14.61-0.71Q13.56-1.61 13.56-2.98L13.56-2.98Q13.56-4.70 14.83-5.58Q16.10-6.46 18.53-6.46L18.53-6.46L19.54-6.46L19.54-7.01Q19.54-8.47 18.28-8.47L18.28-8.47Q17.11-8.47 17.11-7.31L17.11-7.31L13.82-7.31Q13.82-8.85 15.12-9.80Q16.43-10.76 18.45-10.76Q20.47-10.76 21.64-9.78Q22.81-8.79 22.84-7.07L22.84-7.07L22.84-2.39Q22.86-0.94 23.29-0.17L23.29-0.17L23.29 0ZM17.94-2.15L17.94-2.15Q18.55-2.15 18.96-2.41Q19.37-2.68 19.54-3.01L19.54-3.01L19.54-4.70L18.58-4.70Q16.87-4.70 16.87-3.15L16.87-3.15Q16.87-2.71 17.17-2.43Q17.47-2.15 17.94-2.15ZM31.11-10.64L31.05-7.59L29.97-7.67Q28.42-7.67 27.98-6.69L27.98-6.69L27.98 0L24.69 0L24.69-10.57L27.77-10.57L27.88-9.21Q28.71-10.76 30.20-10.76L30.20-10.76Q30.72-10.76 31.11-10.64L31.11-10.64ZM40.49-4.81L43.90-4.81Q43.83-3.33 43.10-2.19Q42.36-1.05 41.04-0.43Q39.72 0.20 38.02 0.20L38.02 0.20Q35.21 0.20 33.60-1.63Q31.99-3.46 31.99-6.79L31.99-6.79L31.99-7.49Q31.99-9.58 32.72-11.15Q33.45-12.71 34.81-13.57Q36.18-14.42 37.98-14.42L37.98-14.42Q40.57-14.42 42.14-13.06Q43.71-11.70 43.93-9.31L43.93-9.31L40.51-9.31Q40.47-10.61 39.85-11.17Q39.24-11.74 37.98-11.74L37.98-11.74Q36.70-11.74 36.10-10.78Q35.51-9.82 35.48-7.72L35.48-7.72L35.48-6.72Q35.48-4.44 36.05-3.47Q36.62-2.49 38.02-2.49L38.02-2.49Q39.20-2.49 39.82-3.05Q40.45-3.60 40.49-4.81L40.49-4.81ZM48.84-10.57L48.84 0L45.54 0L45.54-10.57L48.84-10.57ZM45.34-13.29L45.34-13.29Q45.34-13.99 45.85-14.44Q46.36-14.89 47.17-14.89Q47.98-14.89 48.49-14.44Q48.99-13.99 48.99-13.29Q48.99-12.59 48.49-12.14Q47.98-11.69 47.17-11.69Q46.36-11.69 45.85-12.14Q45.34-12.59 45.34-13.29ZM51.41-13.19L54.70-13.19L54.70-10.57L56.44-10.57L56.44-8.28L54.70-8.28L54.70-3.45Q54.70-2.85 54.91-2.62Q55.13-2.38 55.76-2.38L55.76-2.38Q56.25-2.38 56.58-2.44L56.58-2.44L56.58-0.09Q55.69 0.20 54.73 0.20L54.73 0.20Q53.03 0.20 52.22-0.61Q51.41-1.41 51.41-3.04L51.41-3.04L51.41-8.28L50.06-8.28L50.06-10.57L51.41-10.57L51.41-13.19ZM60.28-10.57L61.95-4.61L63.71-10.57L67.24-10.57L62.93 1.77L62.74 2.22Q61.83 4.27 59.50 4.27L59.50 4.27Q58.86 4.27 58.14 4.07L58.14 4.07L58.14 1.72L58.57 1.72Q59.27 1.72 59.63 1.52Q60 1.32 60.18 0.80L60.18 0.80L60.44 0.10L56.77-10.57L60.28-10.57Z"></path></g></g></svg>